<svg xmlns="http://www.w3.org/2000/svg" version="1.1" xmlns:xlink="http://www.w3.org/1999/xlink" xmlns:svgjs="http://svgjs.dev/svgjs" width="128" height="128" viewBox="0 0 128 128"><g transform="matrix(0.8046875,0,0,0.8046875,12.41184074821259,12.814873242367177)"><svg viewBox="0 0 98 98" data-background-color="#0718c4" preserveAspectRatio="xMidYMid meet" height="127" width="128" xmlns="http://www.w3.org/2000/svg" xmlns:xlink="http://www.w3.org/1999/xlink"><g id="tight-bounds" transform="matrix(1,0,0,1,0.08387967645792571,0.08387967645792571)"><svg viewBox="0 0 97.83224064708415 97.83224064708415" height="97.83224064708415" width="97.83224064708415"><g><svg></svg></g><g><svg viewBox="0 0 97.83224064708415 97.83224064708415" height="97.83224064708415" width="97.83224064708415"><g><path d="M0 48.916c0-27.016 21.9-48.916 48.916-48.916 27.016 0 48.916 21.9 48.916 48.916 0 27.016-21.9 48.916-48.916 48.916-27.016 0-48.916-21.9-48.916-48.916zM48.916 93.858c24.821 0 44.942-20.121 44.942-44.942 0-24.821-20.121-44.942-44.942-44.942-24.821 0-44.942 20.121-44.942 44.942 0 24.821 20.121 44.942 44.942 44.942z" data-fill-palette-color="tertiary" fill="#ffffff" stroke="transparent"></path><ellipse rx="46.95947551060039" ry="46.95947551060039" cx="48.916120323542074" cy="48.916120323542074" fill="#ffffff" stroke="transparent" stroke-width="0" fill-opacity="1" data-fill-palette-color="tertiary"></ellipse></g><g transform="matrix(1,0,0,1,23.47539391502934,26.88322476545949)"><svg viewBox="0 0 50.88145281702547 44.065791116165165" height="44.065791116165165" width="50.88145281702547"><g><svg viewBox="0 0 50.88145281702547 44.065791116165165" height="44.065791116165165" width="50.88145281702547"><g><svg viewBox="0 0 50.88145281702547 44.065791116165165" height="44.065791116165165" width="50.88145281702547"><g id="textblocktransform"><svg viewBox="0 0 50.88145281702547 44.065791116165165" height="44.065791116165165" width="50.88145281702547" id="textblock"><g><svg viewBox="0 0 50.88145281702547 44.065791116165165" height="44.065791116165165" width="50.88145281702547"><g><svg viewBox="0 0 50.88145281702547 44.065791116165165" height="44.065791116165165" width="50.88145281702547"><g><svg xmlns="http://www.w3.org/2000/svg" xmlns:xlink="http://www.w3.org/1999/xlink" version="1.1" x="0" y="0" viewBox="10.008 15.365 79.98400000000001 69.27000000000001" enable-background="new 0 0 100 100" xml:space="preserve" height="44.065791116165165" width="50.88145281702547" class="icon-icon-0" data-fill-palette-color="quaternary" id="icon-0"><path d="M89.992 45H67.109L50 15.365 32.891 45H10.008v10h17.109L10.008 84.635h79.984L72.883 55h17.109V45zM50 35.365L55.563 45H44.438L50 35.365zM72.672 74.635H27.328L38.664 55h22.672L72.672 74.635z" fill="#0718c4" data-fill-palette-color="quaternary"></path></svg></g></svg></g></svg></g></svg></g></svg></g><g></g></svg></g></svg></g></svg></g><defs></defs></svg><rect width="97.83224064708415" height="97.83224064708415" fill="none" stroke="none" visibility="hidden"></rect></g></svg></g></svg>